PathFileType	4	(X/Y/Z)	C:/Users/opensim2020/Desktop/walking_exp_matlab/subject02_walking12_straight_04.trc																																																																																																																												
DataRate	CameraRate	NumFrames	NumMarkers	Units	OrigDataRate	OrigDataStartFrame	OrigNumFrames																																																																																																																								
100	100	7	42	mm	100	2008	125																																																																																																																								
Frame#	Time	LFHD			RFHD			LBHD			RBHD			C7			T10			CLAV			STRN			RBAK			LSHO			LUPA			LELB			LFRM			LWRA			LWRB			LFIN			RSHO			RUPA			RELB			RFRM			RWRA			RWRB			RFIN			LASI			RASI			LPSI			RPSI			LTHI			LKNE			LTIB			LANK			LHEE			LTOE			RTHI			RKNE			RTIB			RANK			RHEE			RTOE			*39			*40			*41		
		X1	Y1	Z1	X2	Y2	Z2	X3	Y3	Z3	X4	Y4	Z4	X5	Y5	Z5	X6	Y6	Z6	X7	Y7	Z7	X8	Y8	Z8	X9	Y9	Z9	X10	Y10	Z10	X11	Y11	Z11	X12	Y12	Z12	X13	Y13	Z13	X14	Y14	Z14	X15	Y15	Z15	X16	Y16	Z16	X17	Y17	Z17	X18	Y18	Z18	X19	Y19	Z19	X20	Y20	Z20	X21	Y21	Z21	X22	Y22	Z22	X23	Y23	Z23	X24	Y24	Z24	X25	Y25	Z25	X26	Y26	Z26	X27	Y27	Z27	X28	Y28	Z28	X29	Y29	Z29	X30	Y30	Z30	X31	Y31	Z31	X32	Y32	Z32	X33	Y33	Z33	X34	Y34	Z34	X35	Y35	Z35	X36	Y36	Z36	X37	Y37	Z37	X38	Y38	Z38	X39	Y39	Z39	X40	Y40	Z40	X41	Y41	Z41	X42	Y42	Z42
																																																																																																																															
16	0.15	-564.94641	1721.19592	-1437.57739	-579.31061	1695.44763	-1296.93909	-685.00555	1633.92456	-1463.66846	-710.87018	1606.30432	-1325.73828	-741.18018	1495.73511	-1393.32483	-799.93011	1223.18628	-1391.88965	-601.54645	1427.95313	-1409.06641	-553.25922	1254.35315	-1413.42151	-800.50299	1319.72046	-1336.73706	-673.28906	1483.48523	-1570.77612	-635.75006	1319.75867	-1698.04004	-576.18304	1204.49182	-1757.23096	-475.03506	1123.78735	-1796.38525	-343.03073	1085.00928	-1792.59949	-378.9119	1051.12256	-1819.9895	-319.89157	1031.23669	-1840.54822	-662.49133	1450.53748	-1210.62817	-728.56458	1269.26282	-1133.54797	-747.09161	1126.625	-1116.6886	-757.12024	1009.66302	-1090.10364	-749.7644	873.17169	-1098.80017	-797.40399	887.00885	-1070.74146	-782.41382	815.99683	-1061.79553	-605.09802	957.43677	-1559.35693	-559.45813	942.19995	-1307.401	-794.88928	1007.99103	-1440.02307	-781.05414	1000.73596	-1327.48181	-753.39954	663.854	-1593.94312	-836.26929	477.07706	-1555.77625	-944.18207	314.05936	-1549.86243	-994.98419	92.32443	-1515.59338	-1033.13977	70.93898	-1463.16919	-846.12994	36.62706	-1536.96521	-562.40796	644.90332	-1232.96655	-469.78293	464.95392	-1287.69604	-418.43301	287.08179	-1280.72192	-343.87256	107.55939	-1318.42444	-354.1062	42.5665	-1373.35681	-183.39435	123.24933	-1327.6228	-682.57733	1771.00562	-1357.1781	-2845.30005	1034.08728	3360.3479	NaN	NaN	NaN
17	0.16	-551.83179	1719.66382	-1438.18713	-566.07806	1694.04309	-1297.53345	-671.82501	1632.23389	-1464.13611	-697.51752	1604.7196	-1326.1416	-727.65204	1493.8457	-1393.81604	-785.77594	1221.29724	-1392.48071	-587.74286	1426.33447	-1409.4425	-539.09418	1252.75769	-1413.63501	-786.73438	1317.75061	-1337.54419	-659.83203	1481.72693	-1571.25732	-621.32721	1318.78101	-1698.33081	-560.64191	1204.22961	-1758.29248	-457.02017	1126.34058	-1796.79871	-324.05536	1091.96265	-1792.04858	-358.70981	1056.93958	-1819.7677	-298.9426	1039.3927	-1840.27002	-649.27423	1448.64441	-1210.97375	-716.58643	1267.79358	-1134.36169	-736.4306	1125.62122	-1117.37158	-747.96979	1009.19006	-1090.03784	-741.99188	872.5163	-1098.04736	-790.44238	887.02777	-1070.63074	-776.96497	816.13635	-1061.40869	-591.38269	955.08191	-1560.6261	-544.21185	940.53369	-1308.74744	-780.28387	1006.14417	-1440.01672	-766.04657	999.35559	-1327.20715	-742.20502	663.26556	-1594.89124	-825.6557	476.79498	-1556.82239	-936.85175	316.15091	-1551.06873	-993.45911	95.94942	-1516.90845	-1032.18469	76.10242	-1464.56177	-846.01581	36.57701	-1537.23999	-544.46375	644.88031	-1233.44751	-453.12268	464.67987	-1288.18494	-403.87805	285.7178	-1280.93567	-333.11212	105.23316	-1318.96411	-343.80167	40.22509	-1373.87598	-172.43213	118.01278	-1326.94141	-669.47491	1769.30408	-1357.73694	-2845.82495	1034.35315	3357.38892	NaN	NaN	NaN
18	0.17	-538.65796	1718.50391	-1438.75513	-552.7334	1692.95898	-1298.04431	-658.5722	1630.83826	-1464.49304	-684.12769	1603.45959	-1326.39417	-714.06519	1492.37195	-1394.14478	-771.51581	1219.72729	-1393.09631	-573.88416	1425.05762	-1409.70496	-524.76611	1251.64099	-1413.99573	-772.67499	1316.08447	-1338.10632	-646.16931	1480.25732	-1571.55505	-607.22699	1317.84985	-1698.49939	-545.48499	1203.6499	-1758.80176	-439.68619	1128.66638	-1797.03821	-306.0477	1098.42358	-1791.01575	-339.41168	1062.27075	-1818.90173	-279.11124	1047.06311	-1839.41663	-635.54773	1446.927	-1210.93994	-704.20752	1266.67761	-1134.94421	-725.26447	1124.80286	-1118.08923	-738.24127	1008.76855	-1090.01001	-734.21759	871.92706	-1097.34192	-782.75226	887.27307	-1070.70325	-770.70276	816.11102	-1060.8313	-577.26306	953.0152	-1561.72095	-528.40857	939.18713	-1309.77771	-765.25751	1004.48242	-1439.81274	-750.66064	998.3877	-1326.83496	-730.00537	662.68848	-1595.55798	-814.16693	476.72858	-1557.94788	-928.64191	318.51791	-1552.50854	-991.24298	100.16695	-1518.19788	-1030.77917	82.15471	-1465.99756	-845.88672	36.52029	-1537.50317	-525.02148	645.67047	-1233.56702	-435.98563	464.42429	-1288.68213	-391.08487	284.21213	-1281.40784	-325.19626	101.95931	-1319.19104	-337.3924	37.36251	-1374.49438	-164.64445	110.59167	-1325.66541	-656.32281	1768.10864	-1358.22729	-2845.89819	1034.47046	3357.37305	NaN	NaN	NaN
19	0.18	-525.42035	1717.57556	-1439.24597	-539.38037	1692.23376	-1298.4762	-645.29407	1629.80408	-1464.72595	-670.67285	1602.54639	-1326.56812	-700.31091	1491.15198	-1394.22363	-757.03442	1218.37366	-1393.63196	-559.96539	1424.13989	-1409.72656	-510.36685	1250.98547	-1414.13647	-758.35614	1314.49768	-1338.31189	-632.43756	1479.18604	-1571.7262	-593.41541	1316.90723	-1698.29529	-531.28198	1203.35071	-1759.47729	-423.2164	1130.64368	-1796.30237	-288.93643	1104.35168	-1789.48572	-321.10388	1067.18384	-1817.61597	-260.35532	1054.11719	-1837.92017	-622.18756	1445.6272	-1211.02393	-691.94244	1265.81482	-1135.55896	-713.59161	1124.14294	-1118.95374	-728.04443	1008.28168	-1090.59058	-726.41565	871.45081	-1096.75098	-774.35681	887.67377	-1071.05432	-763.35815	816.32257	-1060.68628	-562.5127	951.35602	-1562.64685	-512.06171	938.29742	-1310.4895	-749.78687	1002.95172	-1439.50745	-734.93219	997.64203	-1326.54102	-716.54279	662.32452	-1596.5614	-801.80518	476.93179	-1559.07922	-919.7641	321.51199	-1553.8783	-988.76172	105.43447	-1519.69946	-1028.49768	89.00326	-1467.41614	-845.55542	36.15787	-1537.61877	-504.55356	647.32239	-1233.58057	-418.7933	464.21353	-1288.90845	-379.72113	282.11511	-1281.81116	-319.68164	98.02173	-1319.52991	-333.51996	33.81418	-1375.44836	-159.3942	102.04356	-1324.12512	-642.93878	1767.02832	-1358.42273	-2845.82227	1034.44019	3357.48633	NaN	NaN	NaN
20	0.19	-512.17023	1716.89026	-1439.54968	-525.93549	1691.72327	-1298.78772	-631.94287	1628.97144	-1464.85339	-657.185	1601.89087	-1326.63794	-686.57153	1490.29968	-1394.36719	-742.36182	1217.01062	-1394.06543	-546.15265	1423.53943	-1409.63208	-495.96805	1250.70239	-1414.36658	-744.07031	1313.177	-1338.56384	-618.60913	1478.37329	-1571.66406	-579.71826	1316.14148	-1698.01538	-517.48456	1202.64368	-1759.54517	-407.6749	1132.52661	-1795.69727	-273.01334	1109.70605	-1787.63196	-303.75598	1071.47974	-1815.67419	-242.67665	1060.47412	-1835.88135	-608.66199	1444.68787	-1210.97522	-678.77802	1265.21667	-1135.90808	-701.5011	1123.83606	-1119.73999	-717.4162	1008.35217	-1091.32727	-716.8316	871.32928	-1096.6593	-764.84058	888.15363	-1071.35278	-754.99915	816.66321	-1060.60095	-547.14417	950.13263	-1563.38147	-495.18808	937.94257	-1310.84399	-733.8266	1001.56366	-1439.01709	-718.8634	996.94604	-1326.21631	-702.16388	661.94818	-1597.15259	-788.53247	477.44141	-1560.26855	-910.24292	325.13525	-1555.02881	-985.62335	111.2029	-1521.08093	-1025.4834	96.58683	-1468.72009	-845.48956	36.37656	-1538.15198	-483.34985	649.09741	-1233.04858	-402.67737	463.17505	-1288.68884	-369.88287	279.54459	-1282.07227	-316.56299	93.4249	-1320.08386	-331.6066	29.94455	-1376.29065	-156.16946	93.13626	-1322.87036	-629.76984	1766.52844	-1358.98242	-2845.29272	1034.20447	3360.26563	NaN	NaN	NaN
21	0.2	-498.86569	1716.28503	-1439.82654	-512.39655	1691.40002	-1299.05823	-618.57288	1628.25183	-1464.78589	-643.68036	1601.38708	-1326.59778	-672.76904	1489.55273	-1394.25073	-727.41254	1215.73743	-1394.24097	-532.18188	1423.22571	-1409.43604	-481.16965	1250.61182	-1414.24011	-729.67004	1311.87183	-1338.84851	-604.64581	1477.87109	-1571.45032	-566.0542	1315.33008	-1697.38464	-504.2562	1201.91785	-1759.38611	-392.62054	1133.65869	-1794.15308	-257.85483	1114.24426	-1785.17358	-287.34555	1075.19531	-1813.31824	-226.08743	1066.12378	-1833.42822	-595.14783	1444.06201	-1210.78052	-666.17798	1264.71985	-1136.35742	-688.81989	1123.48572	-1120.13721	-705.43353	1008.2077	-1091.9259	-706.45483	871.38354	-1096.66516	-754.43762	888.698	-1071.67676	-745.51685	817.05273	-1060.83289	-531.07288	949.70538	-1563.77478	-477.90787	938.20111	-1310.9353	-717.34436	1000.29901	-1438.44336	-702.34454	996.32111	-1325.97644	-686.78253	661.6593	-1597.72644	-774.11829	477.94846	-1561.43628	-900.05701	329.27548	-1556.05811	-981.89624	117.70185	-1522.57703	-1021.55768	105.10886	-1470.19446	-845.15186	36.33664	-1538.51843	-461.70618	651.07874	-1232.62671	-387.54764	461.72723	-1287.92163	-361.58746	276.47476	-1282.09998	-314.47675	89	-1320.77209	-331.28247	26.3706	-1376.89893	-154.5076	83.55991	-1321.97961	-616.31891	1765.9563	-1359.17639	-2845.16577	1034.25647	3360.30713	NaN	NaN	NaN
22	0.21	-485.51575	1715.85791	-1440.12476	-498.88513	1691.11584	-1299.22095	-605.19891	1627.64063	-1464.7467	-630.07043	1600.98218	-1326.43799	-659.11859	1488.86523	-1394.03137	-712.27344	1214.39624	-1394.15637	-518.28693	1423.04785	-1409.1062	-466.17822	1250.84802	-1413.9187	-715.2652	1310.62988	-1338.99988	-590.7312	1477.50745	-1571.01843	-552.7597	1314.80835	-1696.70166	-491.59637	1201.09509	-1758.90369	-378.61685	1134.84351	-1792.8877	-243.57286	1118.18567	-1782.4364	-271.77545	1078.12366	-1810.44922	-210.33224	1070.61658	-1830.36841	-581.64032	1443.83215	-1210.74927	-652.7807	1264.5625	-1136.48193	-675.77423	1123.34595	-1120.86621	-693.81128	1008.42865	-1091.85706	-695.20984	871.38379	-1096.78015	-742.95331	889.10742	-1072.00293	-735.07538	817.48553	-1061.11047	-513.98962	949.27905	-1563.72852	-460.32635	939.06415	-1310.69714	-700.43481	999.25403	-1437.77454	-685.56531	995.61285	-1325.57739	-670.67944	661.57751	-1598.20337	-759.04242	478.9942	-1563.03113	-888.92389	333.59393	-1556.90637	-977.21539	124.43219	-1523.68018	-1016.66779	114.27354	-1471.55286	-844.77655	36.29576	-1538.94727	-440.28247	652.6203	-1232.5553	-373.53256	460.13254	-1286.5614	-354.34775	273.08167	-1282.87427	-311.88907	85.29806	-1323.49988	-329.68713	27.23369	-1379.26233	-151.91432	72.63116	-1320.95447	-602.69879	1765.35608	-1359.01233	-2845.9126	1034.24792	3357.33594	NaN	NaN	NaN
